<svg xmlns="http://www.w3.org/2000/svg" viewBox="0 0 37.02 118.83"><defs><style>.cls-1,.cls-7{fill:#ffed00;}.cls-2{fill:#f8e100;}.cls-3{fill:#e8d300;}.cls-4{fill:#f5ecb2;}.cls-5{fill:#fff8bb;}.cls-6{fill:#e5dda8;}.cls-7{stroke:#f6df00;stroke-miterlimit:10;}</style></defs><title>Banana</title><g id="Слой_2" data-name="Слой 2"><g id="Слой_1-2" data-name="Слой 1"><path class="cls-1" d="M5.15,0c-.27,0-.55,0-.82.05,4.59,16.21,7.33,36.87,7.33,59.36s-2.74,43.16-7.33,59.37c.27,0,.55,0,.82,0,12.71,0,23-26.6,23-59.42S17.86,0,5.15,0Z"/><path class="cls-2" d="M28.16,59.41C28.16,26.85,18,.42,5.44,0L4.33.05C14,16.26,19.78,36.92,19.78,59.41S14,102.57,4.33,118.78l1.11,0C18,118.41,28.16,92,28.16,59.41Z"/><path class="cls-3" d="M6,.25A103,103,0,0,1,24.22,59.16,102.84,102.84,0,0,1,5.64,118.58c11.87-2.38,21.21-28,21.21-59.21C26.85,28.45,17.7,3.07,6,.25Z"/><path class="cls-4" d="M28.14,55.74C27.4,24.64,17.4,0,5.17,0c-.27,0-.54,0-.81.05,4.33,15.33,7,34.62,7.3,55.69Z"/><path class="cls-5" d="M5.15,0c-.27,0-.55,0-.82.05,4.34,15.33,7,34.62,7.31,55.69h6.69c-.27-20-2.71-38.39-6.66-53.31A10.68,10.68,0,0,0,5.15,0Z"/><path class="cls-6" d="M22.7,55.74h4.58c-.41-17.69-3.83-33.28-9-43.44A238.93,238.93,0,0,1,22.7,55.74Z"/><path class="cls-7" d="M11.5,56.06C7,52.84,3,55.68,1.33,63.44c-2.43,11.2,1.2,26.3,1.45,27.28l7.48-.37c-.24-1-3.88-16.08-1.44-27.28,1.68-7.76,5.61-10.6,10.16-7.38Z"/><path class="cls-7" d="M25.51,55.31c4.53-4.1,8.46-1.63,10.16,6.4,2.45,11.6-1.14,28.25-1.38,29.34l-7.47.69c.24-1.09,3.83-17.73,1.38-29.33-1.69-8-5.62-10.5-10.15-6.4Z"/><path class="cls-7" d="M27.21,65C26,55.9,22.79,52.37,18.87,55.5a4.62,4.62,0,0,1-1,1.24A22.43,22.43,0,0,1,20.3,65c1.91,14.07-1.91,33.45-2.17,34.72h6.92C25.31,98.44,29.13,79.06,27.21,65Z"/></g></g></svg>