<?xml version="1.0" encoding="UTF-8"?>
<svg xmlns="http://www.w3.org/2000/svg" xmlns:xlink="http://www.w3.org/1999/xlink" width="18pt" height="18pt" viewBox="0 0 18 18" version="1.1">
<g id="surface1">
<path style=" stroke:none;fill-rule:nonzero;fill:rgb(0%,0%,0%);fill-opacity:1;" d="M 16.992188 0.988281 C 16.332031 0.328125 15.539062 0 14.609375 0 L 3.371094 0 C 2.441406 0 1.648438 0.328125 0.988281 0.988281 C 0.328125 1.648438 0 2.441406 0 3.371094 L 0 14.609375 C 0 15.539062 0.328125 16.332031 0.988281 16.992188 C 1.648438 17.652344 2.441406 17.980469 3.371094 17.980469 L 14.609375 17.980469 C 15.539062 17.980469 16.332031 17.652344 16.992188 16.992188 C 17.652344 16.332031 17.980469 15.539062 17.980469 14.609375 L 17.980469 3.371094 C 17.980469 2.441406 17.652344 1.648438 16.992188 0.988281 Z M 14.984375 9.363281 C 14.984375 9.691406 14.832031 9.921875 14.527344 10.054688 C 14.425781 10.09375 14.328125 10.113281 14.234375 10.113281 C 14.023438 10.113281 13.847656 10.039062 13.707031 9.890625 L 12.023438 8.207031 L 5.773438 14.457031 C 5.625 14.605469 5.449219 14.679688 5.246094 14.679688 C 5.042969 14.679688 4.867188 14.605469 4.71875 14.457031 L 3.523438 13.261719 C 3.375 13.113281 3.300781 12.9375 3.300781 12.738281 C 3.300781 12.535156 3.375 12.359375 3.523438 12.210938 L 9.773438 5.957031 L 8.089844 4.273438 C 7.847656 4.046875 7.792969 3.773438 7.925781 3.453125 C 8.058594 3.148438 8.289062 2.996094 8.617188 2.996094 L 14.234375 2.996094 C 14.4375 2.996094 14.613281 3.070312 14.761719 3.21875 C 14.910156 3.367188 14.984375 3.542969 14.984375 3.746094 Z M 14.984375 9.363281 "/>
</g>
</svg>
