<svg xmlns="http://www.w3.org/2000/svg" viewBox="0 0 160.23 125.15"><defs><style>.cls-1{fill:#f39000;}.cls-2{fill:#fff;}.cls-3{fill:#e74310;}.cls-4{fill:#f08300;}.cls-5{fill:#ee7203;}.cls-6{fill:none;stroke:#683c11;stroke-linecap:round;stroke-miterlimit:10;stroke-width:3px;}.cls-7{fill:#007836;}.cls-8{fill:#008b3f;}</style></defs><title>Orange</title><g id="Слой_2" data-name="Слой 2"><g id="Слой_1-2" data-name="Слой 1"><circle class="cls-1" cx="113.13" cy="78.06" r="47.1"/><circle class="cls-2" cx="113.13" cy="78.06" r="44.2"/><polygon class="cls-3" points="112.89 117.08 127.81 117.08 120.35 97.52 112.89 77.96 105.43 97.52 97.97 117.08 112.89 117.08"/><path class="cls-3" d="M98.33,118l-.36-1h29.84l-.36,1a47,47,0,0,1-29.12,0Z"/><polygon class="cls-3" points="112.89 39.04 127.81 39.04 120.35 58.59 112.89 78.15 105.43 58.59 97.97 39.04 112.89 39.04"/><path class="cls-3" d="M98.33,38.08,98,39h29.84l-.36-1a47,47,0,0,0-29.12,0Z"/><polygon class="cls-3" points="85.37 105.48 95.92 116.03 104.47 96.93 113.03 77.82 93.92 86.38 74.81 94.93 85.37 105.48"/><path class="cls-3" d="M74.39,95.87l.42-.94,10.56,10.55L95.92,116l-.94.42A47.18,47.18,0,0,1,74.39,95.87Z"/><polygon class="cls-3" points="140.55 50.3 151.1 60.85 132 69.41 112.89 77.96 121.44 58.85 130 39.75 140.55 50.3"/><path class="cls-3" d="M130.93,39.33l-.93.42L140.55,50.3,151.1,60.85l.42-.94a47,47,0,0,0-20.59-20.58Z"/><polygon class="cls-3" points="140.48 105.55 151.03 95 131.93 86.44 112.82 77.89 121.38 97 129.93 116.1 140.48 105.55"/><path class="cls-3" d="M130.87,116.52l-.94-.42,10.55-10.55L151,95l.42.94a47.09,47.09,0,0,1-20.58,20.58Z"/><polygon class="cls-3" points="85.3 50.37 95.85 39.82 104.4 58.92 112.96 78.03 93.85 69.47 74.75 60.92 85.3 50.37"/><path class="cls-3" d="M74.33,60l.42.94L85.3,50.37,95.85,39.82l-.94-.42A47.09,47.09,0,0,0,74.33,60Z"/><polygon class="cls-3" points="152.05 77.82 152.05 62.9 132.49 70.36 112.93 77.82 132.49 85.28 152.05 92.75 152.05 77.82"/><path class="cls-3" d="M153,92.38l-1,.37V62.9l1,.37a47.2,47.2,0,0,1,0,29.11Z"/><polygon class="cls-3" points="74.01 77.82 74.01 62.9 93.56 70.36 113.12 77.82 93.56 85.28 74.01 92.75 74.01 77.82"/><path class="cls-3" d="M73.05,92.38l1,.37V62.9l-1,.37a47,47,0,0,0,0,29.11Z"/><circle class="cls-4" cx="56.14" cy="78.29" r="44.53"/><path class="cls-5" d="M95.4,57.29A44.52,44.52,0,0,1,13.73,91.85,44.53,44.53,0,1,0,95.4,57.29Z"/><path class="cls-1" d="M14,63.81a44.36,44.36,0,0,0-2.33,17.57A45.51,45.51,0,0,0,19.56,85a44.57,44.57,0,0,0,58.92-45.2,46.21,46.21,0,0,0-7.85-3.58A44.52,44.52,0,0,0,14,63.81Z"/><path class="cls-6" d="M33.62,45.21A27.65,27.65,0,0,0,25,33.71,34.62,34.62,0,0,0,11.6,27.4"/><path class="cls-7" d="M0,42.31C10.49,34.89,28.4,37.75,35.64,48"/><path class="cls-8" d="M35.64,48C25.15,55.4,7.24,52.55,0,42.31"/><path class="cls-7" d="M54.55,0C61.48,16.73,52,40.46,35.64,47.23"/><path class="cls-8" d="M35.64,47.23C28.71,30.5,38.21,6.76,54.55,0"/></g></g></svg>