<?xml version="1.0" encoding="UTF-8"?>
<svg xmlns="http://www.w3.org/2000/svg" xmlns:xlink="http://www.w3.org/1999/xlink" width="10pt" height="17pt" viewBox="0 0 10 17" version="1.1">
<g id="surface1">
<path style=" stroke:none;fill-rule:nonzero;fill:rgb(0%,0%,0%);fill-opacity:1;" d="M 3.75 2.097656 C 3.726562 2.105469 3.703125 2.105469 3.683594 2.101562 C 3.652344 2.09375 3.625 2.078125 3.605469 2.054688 "/>
<path style=" stroke:none;fill-rule:nonzero;fill:rgb(0%,0%,0%);fill-opacity:1;" d="M 3.765625 2.054688 C 3.746094 2.0625 3.722656 2.0625 3.699219 2.058594 C 3.671875 2.050781 3.644531 2.03125 3.625 2.007812 "/>
<path style=" stroke:none;fill-rule:nonzero;fill:rgb(0%,0%,0%);fill-opacity:1;" d="M 3.777344 2.035156 C 3.753906 2.035156 3.730469 2.027344 3.710938 2.015625 C 3.683594 2 3.664062 1.976562 3.652344 1.949219 "/>
<path style=" stroke:none;fill-rule:nonzero;fill:rgb(0%,0%,0%);fill-opacity:1;" d="M 3.8125 1.992188 C 3.75 1.976562 3.703125 1.929688 3.6875 1.867188 "/>
<path style=" stroke:none;fill-rule:nonzero;fill:rgb(0%,0%,0%);fill-opacity:1;" d="M 3.828125 1.980469 C 3.8125 1.960938 3.800781 1.945312 3.789062 1.921875 C 3.777344 1.898438 3.769531 1.871094 3.769531 1.84375 "/>
<path style=" stroke:none;fill-rule:nonzero;fill:rgb(0%,0%,0%);fill-opacity:1;" d="M 3.863281 1.964844 C 3.859375 1.945312 3.851562 1.925781 3.851562 1.910156 C 3.847656 1.886719 3.847656 1.863281 3.851562 1.84375 "/>
<path style=" stroke:none;fill-rule:nonzero;fill:rgb(0%,0%,0%);fill-opacity:1;" d="M 3.902344 1.957031 C 3.902344 1.941406 3.902344 1.921875 3.910156 1.90625 C 3.914062 1.886719 3.925781 1.871094 3.941406 1.855469 "/>
<path style=" stroke:none;fill-rule:nonzero;fill:rgb(0%,0%,0%);fill-opacity:1;" d="M 4.019531 2.058594 C 4.011719 2.050781 3.96875 1.972656 3.886719 1.964844 C 3.855469 1.960938 3.824219 1.96875 3.800781 1.984375 C 3.785156 2.003906 3.773438 2.027344 3.769531 2.054688 C 3.761719 2.078125 3.753906 2.101562 3.75 2.125 "/>
<path style=" stroke:none;fill-rule:nonzero;fill:rgb(0%,0%,0%);fill-opacity:1;" d="M 4.9375 2.015625 C 4.941406 2 4.949219 1.988281 4.964844 1.980469 C 4.984375 1.964844 5.007812 1.957031 5.03125 1.949219 "/>
<path style=" stroke:none;fill-rule:nonzero;fill:rgb(0%,0%,0%);fill-opacity:1;" d="M 4.914062 2.011719 C 4.910156 1.996094 4.914062 1.976562 4.925781 1.960938 C 4.9375 1.941406 4.960938 1.929688 4.984375 1.929688 "/>
<path style=" stroke:none;fill-rule:nonzero;fill:rgb(0%,0%,0%);fill-opacity:1;" d="M 4.882812 2 C 4.878906 1.972656 4.882812 1.945312 4.898438 1.921875 C 4.910156 1.90625 4.929688 1.894531 4.949219 1.894531 "/>
<path style=" stroke:none;fill-rule:nonzero;fill:rgb(0%,0%,0%);fill-opacity:1;" d="M 4.851562 1.964844 C 4.851562 1.945312 4.851562 1.929688 4.859375 1.914062 C 4.867188 1.890625 4.886719 1.875 4.910156 1.867188 "/>
<path style=" stroke:none;fill-rule:nonzero;fill:rgb(0%,0%,0%);fill-opacity:1;" d="M 4.800781 1.945312 C 4.800781 1.925781 4.800781 1.90625 4.8125 1.886719 C 4.824219 1.867188 4.839844 1.851562 4.863281 1.84375 "/>
<path style=" stroke:none;fill-rule:nonzero;fill:rgb(0%,0%,0%);fill-opacity:1;" d="M 4.773438 1.941406 C 4.753906 1.898438 4.769531 1.851562 4.808594 1.824219 "/>
<path style=" stroke:none;fill-rule:nonzero;fill:rgb(0%,0%,0%);fill-opacity:1;" d="M 4.71875 1.925781 C 4.707031 1.910156 4.703125 1.890625 4.703125 1.871094 C 4.703125 1.855469 4.710938 1.835938 4.71875 1.824219 "/>
<path style=" stroke:none;fill-rule:nonzero;fill:rgb(0%,0%,0%);fill-opacity:1;" d="M 4.679688 1.949219 C 4.671875 1.933594 4.664062 1.914062 4.660156 1.894531 C 4.652344 1.871094 4.652344 1.84375 4.660156 1.816406 "/>
<path style=" stroke:none;fill-rule:nonzero;fill:rgb(0%,0%,0%);fill-opacity:1;" d="M 4.652344 1.945312 C 4.644531 1.925781 4.636719 1.902344 4.632812 1.878906 C 4.628906 1.859375 4.625 1.84375 4.621094 1.824219 "/>
<path style=" stroke:none;fill-rule:nonzero;fill:rgb(0%,0%,0%);fill-opacity:1;" d="M 4.621094 1.964844 C 4.605469 1.949219 4.589844 1.9375 4.578125 1.917969 C 4.566406 1.898438 4.554688 1.875 4.550781 1.851562 "/>
<path style=" stroke:none;fill-rule:nonzero;fill:rgb(0%,0%,0%);fill-opacity:1;" d="M 4.605469 1.992188 C 4.582031 1.984375 4.5625 1.96875 4.546875 1.953125 C 4.527344 1.925781 4.515625 1.894531 4.515625 1.863281 "/>
<path style=" stroke:none;fill-rule:nonzero;fill:rgb(0%,0%,0%);fill-opacity:1;" d="M 8.796875 5.347656 C 8.75 5.269531 8.609375 5.042969 8.539062 4.875 C 8.523438 4.84375 8.511719 4.816406 8.511719 4.816406 C 8.476562 4.730469 8.453125 4.640625 8.433594 4.546875 C 8.410156 4.421875 8.453125 4.382812 8.472656 4.21875 C 8.488281 4.074219 8.472656 3.96875 8.449219 3.839844 C 8.410156 3.585938 8.324219 3.492188 8.195312 3.195312 C 8.085938 2.953125 8 2.753906 7.960938 2.480469 C 7.921875 2.179688 7.976562 2.046875 7.878906 1.742188 C 7.859375 1.6875 7.863281 1.707031 7.757812 1.449219 C 7.535156 0.910156 7.558594 0.914062 7.5 0.828125 C 7.335938 0.585938 7.085938 0.472656 6.871094 0.375 C 6.644531 0.273438 6.453125 0.238281 6.285156 0.207031 C 6.050781 0.160156 5.953125 0.21875 5.742188 0.144531 C 5.621094 0.101562 5.585938 0.0664062 5.449219 0.0390625 C 5.332031 0.0117188 5.214844 0.0078125 5.09375 0.0234375 C 5 0.0351562 4.988281 0.0546875 4.785156 0.113281 C 4.652344 0.148438 4.585938 0.160156 4.527344 0.175781 C 4.351562 0.222656 3.910156 0.335938 3.785156 0.644531 C 3.722656 0.796875 3.742188 0.984375 3.746094 1.003906 C 3.753906 1.054688 3.761719 1.101562 3.777344 1.152344 "/>
<path style=" stroke:none;fill-rule:nonzero;fill:rgb(0%,0%,0%);fill-opacity:1;" d="M 3.632812 3.96875 C 3.613281 4.160156 3.582031 4.347656 3.535156 4.53125 C 3.5 4.683594 3.429688 4.921875 3.1875 5.488281 C 2.945312 6.058594 2.949219 5.960938 2.859375 6.214844 C 2.707031 6.640625 2.769531 6.683594 2.597656 7.296875 C 2.511719 7.59375 2.386719 7.964844 2.429688 7.980469 C 2.449219 7.988281 2.484375 7.890625 2.609375 7.828125 C 2.675781 7.796875 2.746094 7.777344 2.820312 7.773438 C 2.921875 7.757812 2.960938 7.769531 3.015625 7.765625 C 3.242188 7.746094 3.332031 7.492188 3.410156 7.519531 C 3.496094 7.546875 3.503906 7.871094 3.417969 8.15625 C 3.367188 8.320312 3.304688 8.414062 3.347656 8.457031 C 3.382812 8.492188 3.445312 8.457031 3.714844 8.402344 C 3.890625 8.371094 3.933594 8.371094 3.96875 8.328125 C 4.019531 8.261719 3.960938 8.179688 3.945312 8.039062 C 3.921875 7.828125 4.007812 7.578125 4.097656 7.566406 C 4.230469 7.546875 4.507812 8.011719 4.433594 8.414062 C 4.414062 8.511719 4.371094 8.644531 4.398438 8.65625 C 4.425781 8.667969 4.503906 8.554688 4.539062 8.507812 C 4.605469 8.417969 4.660156 8.316406 4.699219 8.207031 C 4.804688 7.859375 4.671875 7.402344 4.453125 7.316406 C 4.433594 7.308594 4.398438 7.296875 4.386719 7.269531 C 4.355469 7.191406 4.542969 7.078125 4.640625 6.980469 C 4.992188 6.644531 4.890625 5.949219 4.78125 5.601562 C 4.683594 5.300781 4.605469 5.339844 4.570312 5.105469 C 4.523438 4.792969 4.636719 4.542969 4.46875 4.289062 C 4.445312 4.253906 4.417969 4.222656 4.390625 4.195312 "/>
<path style=" stroke:none;fill-rule:nonzero;fill:rgb(0%,0%,0%);fill-opacity:1;" d="M 6.464844 3.398438 C 6.359375 3.660156 6.316406 3.941406 6.332031 4.222656 C 6.347656 4.394531 6.382812 4.5625 6.4375 4.726562 C 6.492188 4.902344 6.523438 4.992188 6.605469 5.085938 C 6.632812 5.121094 6.769531 5.273438 6.988281 5.308594 C 7.148438 5.332031 7.277344 5.28125 7.539062 5.175781 C 7.652344 5.128906 7.765625 5.066406 7.765625 5.066406 C 7.820312 5.039062 7.855469 5.019531 7.863281 5.015625 C 7.945312 4.96875 8.117188 4.976562 8.527344 5.1875 "/>
<path style=" stroke:none;fill-rule:nonzero;fill:rgb(0%,0%,0%);fill-opacity:1;" d="M 6.546875 5.132812 C 6.480469 5.242188 6.40625 5.347656 6.328125 5.445312 C 6.1875 5.617188 6.109375 5.671875 5.953125 5.832031 C 5.722656 6.070312 5.726562 6.117188 5.488281 6.382812 C 5.347656 6.535156 5.203125 6.679688 5.046875 6.820312 "/>
<path style=" stroke:none;fill-rule:nonzero;fill:rgb(0%,0%,0%);fill-opacity:1;" d="M 4.691406 6.027344 C 4.714844 6.152344 4.746094 6.277344 4.78125 6.402344 C 4.8125 6.515625 4.855469 6.632812 4.902344 6.746094 "/>
<path style=" stroke:none;fill-rule:nonzero;fill:rgb(0%,0%,0%);fill-opacity:1;" d="M 4.800781 7.113281 C 4.835938 7.09375 4.878906 7.082031 4.917969 7.082031 C 4.964844 7.082031 4.984375 7.101562 5.027344 7.097656 C 5.066406 7.097656 5.125 7.078125 5.140625 7.039062 C 5.15625 7 5.121094 6.929688 5.042969 6.894531 "/>
<path style=" stroke:none;fill-rule:nonzero;fill:rgb(0%,0%,0%);fill-opacity:1;" d="M 4.792969 7.085938 C 4.773438 7.011719 4.777344 6.9375 4.800781 6.867188 C 4.820312 6.820312 4.84375 6.757812 4.902344 6.746094 C 4.933594 6.734375 4.972656 6.742188 5 6.765625 C 5.03125 6.804688 5.035156 6.859375 5.007812 6.898438 "/>
<path style=" stroke:none;fill-rule:nonzero;fill:rgb(0%,0%,0%);fill-opacity:1;" d="M 3.355469 4.636719 C 3.160156 4.644531 2.964844 4.691406 2.785156 4.773438 C 2.449219 4.917969 2.199219 5.199219 2.097656 5.539062 C 1.953125 5.964844 1.964844 6.28125 1.933594 6.632812 C 1.890625 7.144531 1.816406 7.082031 1.742188 7.640625 C 1.625 8.554688 1.84375 8.59375 1.742188 9.453125 C 1.675781 10.027344 1.6875 10.367188 1.777344 10.46875 C 1.777344 10.546875 1.796875 10.621094 1.839844 10.6875 C 1.914062 10.792969 2.019531 10.789062 2.125 10.902344 C 2.171875 10.964844 2.210938 11.035156 2.230469 11.109375 C 2.367188 11.5 2.890625 11.765625 2.847656 11.839844 C 2.820312 11.882812 2.640625 11.78125 2.289062 11.726562 C 2.074219 11.691406 1.914062 11.695312 1.613281 11.703125 C 1.230469 11.710938 1.039062 11.714844 0.925781 11.75 C 0.527344 11.863281 0.132812 12.1875 0.046875 12.59375 C 0.0429688 12.617188 0.0390625 12.628906 0.0351562 12.878906 C 0.0234375 13.425781 0.0195312 13.699219 0.0234375 13.882812 C 0.0351562 14.285156 0.0820312 14.566406 0.128906 14.886719 C 0.203125 15.359375 0.300781 16.042969 0.414062 17 "/>
<path style=" stroke:none;fill-rule:nonzero;fill:rgb(0%,0%,0%);fill-opacity:1;" d="M 8.925781 5.429688 C 9.066406 5.574219 9.1875 5.734375 9.285156 5.910156 C 9.519531 6.335938 9.535156 6.734375 9.546875 7 C 9.5625 7.484375 9.46875 7.949219 9.464844 8.453125 C 9.464844 8.519531 9.464844 8.578125 9.464844 8.585938 C 9.46875 8.859375 9.492188 9.039062 9.503906 9.160156 C 9.539062 9.488281 9.472656 9.488281 9.492188 9.824219 C 9.515625 10.261719 9.621094 10.210938 9.617188 10.542969 C 9.613281 10.773438 9.554688 11.230469 9.351562 11.421875 C 9.3125 11.453125 9.285156 11.496094 9.269531 11.542969 C 9.230469 11.664062 9.320312 11.738281 9.335938 11.863281 C 9.363281 12.042969 9.199219 12.078125 9.144531 12.316406 C 9.082031 12.578125 9.253906 12.636719 9.1875 12.875 C 9.125 13.082031 8.984375 13.078125 8.910156 13.3125 C 8.863281 13.464844 8.90625 13.511719 8.894531 13.710938 C 8.871094 14.109375 8.667969 14.429688 8.632812 14.417969 C 8.605469 14.410156 8.683594 14.242188 8.660156 13.964844 C 8.644531 13.792969 8.628906 13.601562 8.480469 13.445312 C 8.332031 13.285156 8.078125 13.195312 7.875 13.257812 C 7.695312 13.3125 7.613281 13.472656 7.566406 13.445312 C 7.523438 13.417969 7.609375 13.273438 7.609375 13.042969 C 7.609375 12.890625 7.566406 12.875 7.539062 12.699219 C 7.507812 12.460938 7.535156 12.21875 7.621094 11.992188 C 7.671875 11.863281 7.734375 11.746094 7.816406 11.632812 "/>
<path style=" stroke:none;fill-rule:nonzero;fill:rgb(0%,0%,0%);fill-opacity:1;" d="M 9.875 11.125 C 10.039062 11.613281 9.980469 11.929688 9.890625 12.132812 C 9.820312 12.292969 9.757812 12.320312 9.664062 12.550781 C 9.570312 12.785156 9.472656 13.03125 9.542969 13.304688 C 9.601562 13.53125 9.738281 13.621094 9.683594 13.757812 C 9.628906 13.882812 9.484375 13.890625 9.472656 13.992188 C 9.464844 14.09375 9.609375 14.140625 9.734375 14.277344 C 9.980469 14.546875 9.9375 14.960938 9.910156 15.234375 C 9.890625 15.390625 9.855469 15.550781 9.804688 15.703125 C 9.679688 16.125 9.59375 16.558594 9.542969 17 "/>
<path style=" stroke:none;fill-rule:nonzero;fill:rgb(0%,0%,0%);fill-opacity:1;" d="M 8.46875 8.128906 C 8.433594 8.386719 8.386719 8.707031 8.316406 9.066406 C 8.273438 9.28125 8.1875 9.699219 8.042969 10.222656 C 7.945312 10.566406 7.828125 10.949219 7.675781 11.367188 "/>
<path style=" stroke:none;fill-rule:nonzero;fill:rgb(0%,0%,0%);fill-opacity:1;" d="M 3.367188 12.171875 C 3.542969 12.011719 3.800781 11.832031 4.128906 11.820312 C 4.324219 11.8125 4.464844 11.871094 4.507812 11.804688 C 4.5625 11.730469 4.402344 11.542969 4.082031 11.175781 C 3.460938 10.464844 3.359375 10.359375 3.257812 10.132812 C 3.148438 9.890625 3.183594 9.832031 3.074219 9.429688 C 2.96875 9.035156 2.816406 8.648438 2.621094 8.289062 "/>
<path style=" stroke:none;fill-rule:nonzero;fill:rgb(0%,0%,0%);fill-opacity:1;" d="M 4.601562 11.980469 C 4.945312 12.140625 5.125 12.308594 5.222656 12.4375 C 5.257812 12.484375 5.300781 12.53125 5.347656 12.570312 C 5.5 12.695312 5.644531 12.699219 5.863281 12.757812 C 6.023438 12.804688 6.175781 12.863281 6.320312 12.933594 C 6.503906 13.027344 6.707031 13.132812 6.808594 13.347656 C 6.867188 13.46875 6.894531 13.636719 6.835938 13.667969 C 6.796875 13.691406 6.726562 13.625 6.519531 13.492188 C 6.296875 13.351562 6.160156 13.265625 6.105469 13.300781 C 6.054688 13.339844 6.113281 13.5 6.167969 13.640625 C 6.238281 13.816406 6.324219 13.988281 6.425781 14.152344 C 6.519531 14.304688 6.566406 14.363281 6.546875 14.445312 C 6.527344 14.539062 6.4375 14.625 6.367188 14.636719 C 6.234375 14.660156 6.003906 14.460938 5.574219 13.449219 "/>
<path style=" stroke:none;fill-rule:nonzero;fill:rgb(0%,0%,0%);fill-opacity:1;" d="M 3.640625 12.304688 C 3.765625 12.390625 3.882812 12.488281 3.992188 12.597656 C 4.304688 12.917969 4.425781 13.238281 4.539062 13.492188 C 4.976562 14.484375 5.042969 14.59375 5.210938 14.679688 C 5.363281 14.757812 5.617188 14.8125 6.046875 14.664062 "/>
<path style=" stroke:none;fill-rule:nonzero;fill:rgb(0%,0%,0%);fill-opacity:1;" d="M 7.523438 13.554688 C 7.492188 13.640625 7.445312 13.773438 7.382812 13.925781 C 7.296875 14.128906 7.238281 14.226562 7.136719 14.433594 C 6.945312 14.8125 6.851562 15 6.808594 15.15625 C 6.753906 15.351562 6.800781 15.292969 6.726562 15.820312 C 6.675781 16.160156 6.632812 16.347656 6.714844 16.394531 C 6.796875 16.441406 6.894531 16.296875 6.996094 16.339844 C 7.152344 16.402344 7.011719 16.800781 7.195312 16.9375 C 7.316406 17.023438 7.511719 16.953125 7.769531 16.855469 C 8.136719 16.71875 8.472656 16.59375 8.636719 16.28125 C 8.746094 16.066406 8.71875 15.867188 8.679688 15.550781 C 8.621094 15.054688 8.453125 14.921875 8.46875 14.558594 C 8.484375 14.347656 8.550781 14.144531 8.660156 13.964844 "/>
<path style=" stroke:none;fill-rule:nonzero;fill:rgb(0%,0%,0%);fill-opacity:1;" d="M 4.566406 2.042969 C 4.523438 2.0625 4.472656 2.050781 4.441406 2.015625 "/>
<path style=" stroke:none;fill-rule:nonzero;fill:rgb(0%,0%,0%);fill-opacity:1;" d="M 4.566406 2.019531 C 4.539062 2.023438 4.511719 2.015625 4.496094 1.996094 C 4.480469 1.984375 4.472656 1.964844 4.472656 1.945312 "/>
<path style=" stroke:none;fill-rule:nonzero;fill:rgb(0%,0%,0%);fill-opacity:1;" d="M 4.550781 2.148438 C 4.535156 2.105469 4.601562 2.046875 4.617188 2.03125 C 4.644531 2.007812 4.675781 1.988281 4.714844 1.976562 C 4.84375 1.945312 5.007812 2.0625 4.996094 2.121094 C 4.984375 2.1875 4.769531 2.195312 4.742188 2.195312 C 4.691406 2.195312 4.570312 2.199219 4.550781 2.148438 Z M 4.550781 2.148438 "/>
<path style=" stroke:none;fill-rule:nonzero;fill:rgb(0%,0%,0%);fill-opacity:1;" d="M 4.480469 2.148438 C 4.503906 2.113281 4.527344 2.082031 4.554688 2.050781 C 4.609375 1.984375 4.640625 1.945312 4.6875 1.933594 C 4.738281 1.921875 4.773438 1.9375 4.828125 1.957031 C 4.890625 1.980469 4.917969 2.003906 4.996094 2.058594 C 5.03125 2.078125 5.085938 2.113281 5.152344 2.152344 "/>
<path style=" stroke:none;fill-rule:nonzero;fill:rgb(0%,0%,0%);fill-opacity:1;" d="M 4.863281 2.070312 C 4.863281 2.125 4.816406 2.171875 4.757812 2.171875 C 4.699219 2.171875 4.65625 2.125 4.65625 2.070312 C 4.65625 2.015625 4.699219 1.972656 4.757812 1.972656 C 4.816406 1.972656 4.863281 2.015625 4.863281 2.070312 Z M 4.863281 2.070312 "/>
<path style=" stroke:none;fill-rule:nonzero;fill:rgb(0%,0%,0%);fill-opacity:1;" d="M 4.675781 2.074219 C 4.675781 2.050781 4.683594 2.027344 4.699219 2.011719 C 4.738281 1.988281 4.789062 1.992188 4.820312 2.023438 Z M 4.675781 2.074219 "/>
<path style=" stroke:none;fill-rule:nonzero;fill:rgb(0%,0%,0%);fill-opacity:1;" d="M 3.828125 2.078125 C 3.828125 2.058594 3.832031 2.039062 3.847656 2.023438 C 3.867188 2 3.910156 2 3.941406 2.03125 Z M 3.828125 2.078125 "/>
<path style=" stroke:none;fill-rule:nonzero;fill:rgb(0%,0%,0%);fill-opacity:1;" d="M 4.265625 1.6875 C 4.269531 1.652344 4.332031 1.636719 4.375 1.621094 C 4.433594 1.609375 4.492188 1.601562 4.550781 1.605469 C 4.667969 1.609375 4.789062 1.617188 4.90625 1.636719 C 5.023438 1.65625 5.058594 1.667969 5.082031 1.675781 C 5.09375 1.683594 5.257812 1.753906 5.246094 1.824219 C 5.242188 1.84375 5.226562 1.867188 5.210938 1.867188 C 5.191406 1.871094 5.175781 1.847656 5.167969 1.839844 C 5.148438 1.8125 5.113281 1.796875 4.894531 1.769531 C 4.769531 1.753906 4.703125 1.746094 4.667969 1.753906 C 4.605469 1.769531 4.59375 1.789062 4.523438 1.796875 C 4.46875 1.808594 4.410156 1.800781 4.355469 1.78125 C 4.347656 1.773438 4.257812 1.734375 4.265625 1.6875 Z M 4.265625 1.6875 "/>
<path style=" stroke:none;fill-rule:nonzero;fill:rgb(0%,0%,0%);fill-opacity:1;" d="M 3.988281 1.765625 C 4 1.722656 3.9375 1.667969 3.886719 1.644531 C 3.804688 1.609375 3.710938 1.625 3.648438 1.679688 C 3.601562 1.722656 3.578125 1.792969 3.597656 1.816406 C 3.613281 1.828125 3.636719 1.816406 3.703125 1.816406 C 3.765625 1.816406 3.773438 1.828125 3.824219 1.828125 C 3.875 1.828125 3.976562 1.8125 3.988281 1.765625 Z M 3.988281 1.765625 "/>
<path style=" stroke:none;fill-rule:nonzero;fill:rgb(0%,0%,0%);fill-opacity:1;" d="M 3.769531 2.179688 C 3.757812 2.136719 3.761719 2.09375 3.777344 2.050781 C 3.785156 2.019531 3.804688 1.992188 3.832031 1.976562 C 3.902344 1.941406 4.019531 2.007812 4.019531 2.0625 C 4.019531 2.074219 4.003906 2.09375 3.976562 2.132812 C 3.964844 2.152344 3.949219 2.171875 3.933594 2.1875 Z M 3.769531 2.179688 "/>
<path style=" stroke:none;fill-rule:nonzero;fill:rgb(0%,0%,0%);fill-opacity:1;" d="M 3.996094 1.84375 C 4.027344 1.867188 4.046875 1.902344 4.058594 1.941406 C 4.066406 1.980469 4.0625 2.019531 4.042969 2.054688 C 4.03125 2.082031 4.015625 2.105469 3.996094 2.128906 C 3.863281 2.265625 3.746094 2.410156 3.613281 2.546875 C 3.59375 2.570312 3.546875 2.621094 3.558594 2.671875 C 3.5625 2.6875 3.570312 2.703125 3.578125 2.714844 C 3.597656 2.765625 3.601562 2.78125 3.609375 2.792969 C 3.640625 2.859375 3.707031 2.902344 3.78125 2.914062 C 3.8125 2.917969 3.847656 2.914062 3.878906 2.902344 C 3.902344 2.890625 3.910156 2.875 3.933594 2.875 C 3.957031 2.871094 3.984375 2.878906 4.003906 2.890625 C 4.117188 2.929688 4.238281 2.871094 4.28125 2.765625 "/>
<path style=" stroke:none;fill-rule:nonzero;fill:rgb(0%,0%,0%);fill-opacity:1;" d="M 3.796875 2.832031 C 3.792969 2.8125 3.800781 2.792969 3.816406 2.785156 C 3.859375 2.75 3.941406 2.78125 4.007812 2.808594 C 4.015625 2.808594 4.101562 2.84375 4.09375 2.855469 C 4.089844 2.871094 4.039062 2.863281 3.992188 2.851562 C 3.941406 2.839844 3.9375 2.828125 3.910156 2.832031 C 3.875 2.835938 3.867188 2.863281 3.835938 2.859375 C 3.820312 2.855469 3.804688 2.847656 3.796875 2.832031 Z M 3.796875 2.832031 "/>
<path style=" stroke:none;fill-rule:nonzero;fill:rgb(0%,0%,0%);fill-opacity:1;" d="M 4.515625 2.210938 C 4.558594 2.25 4.601562 2.277344 4.65625 2.296875 C 4.710938 2.316406 4.773438 2.324219 4.835938 2.320312 "/>
<path style=" stroke:none;fill-rule:nonzero;fill:rgb(0%,0%,0%);fill-opacity:1;" d="M 4.480469 2.253906 L 4.625 2.34375 "/>
<path style=" stroke:none;fill-rule:nonzero;fill:rgb(0%,0%,0%);fill-opacity:1;" d="M 3.800781 2.28125 L 3.738281 2.296875 "/>
<path style=" stroke:none;fill-rule:nonzero;fill:rgb(0%,0%,0%);fill-opacity:1;" d="M 5.167969 2.1875 L 5.253906 2.195312 "/>
<path style=" stroke:none;fill-rule:nonzero;fill:rgb(0%,0%,0%);fill-opacity:1;" d="M 3.976562 2.089844 C 3.976562 2.03125 3.9375 1.980469 3.890625 1.980469 C 3.84375 1.980469 3.804688 2.03125 3.804688 2.089844 C 3.804688 2.152344 3.84375 2.203125 3.890625 2.203125 C 3.9375 2.203125 3.976562 2.152344 3.976562 2.089844 Z M 3.976562 2.089844 "/>
<path style=" stroke:none;fill-rule:nonzero;fill:rgb(0%,0%,0%);fill-opacity:1;" d="M 3.835938 3.183594 C 3.863281 3.160156 3.898438 3.144531 3.9375 3.140625 C 3.980469 3.132812 4.027344 3.140625 4.070312 3.160156 C 4.070312 3.160156 4.207031 3.214844 4.375 3.265625 C 4.449219 3.289062 4.527344 3.300781 4.605469 3.308594 "/>
<path style=" stroke:none;fill-rule:nonzero;fill:rgb(0%,0%,0%);fill-opacity:1;" d="M 3.878906 3.558594 C 3.953125 3.570312 4.027344 3.574219 4.105469 3.566406 C 4.167969 3.558594 4.234375 3.542969 4.292969 3.519531 C 4.351562 3.5 4.402344 3.476562 4.457031 3.445312 C 4.511719 3.417969 4.554688 3.390625 4.585938 3.375 "/>
<path style=" stroke:none;fill-rule:nonzero;fill:rgb(0%,0%,0%);fill-opacity:1;" d="M 3.859375 3.5625 C 3.816406 3.574219 3.769531 3.570312 3.726562 3.554688 C 3.6875 3.546875 3.65625 3.519531 3.644531 3.488281 C 3.628906 3.453125 3.632812 3.414062 3.652344 3.382812 C 3.664062 3.363281 3.675781 3.34375 3.695312 3.332031 C 3.714844 3.324219 3.734375 3.320312 3.753906 3.324219 C 3.792969 3.324219 3.832031 3.328125 3.871094 3.34375 C 3.878906 3.34375 3.886719 3.347656 3.894531 3.347656 C 3.914062 3.351562 3.929688 3.347656 3.945312 3.34375 C 4.003906 3.324219 4.277344 3.363281 4.433594 3.386719 C 4.460938 3.390625 4.492188 3.386719 4.519531 3.378906 C 4.554688 3.363281 4.585938 3.339844 4.609375 3.308594 "/>
<path style=" stroke:none;fill-rule:nonzero;fill:rgb(0%,0%,0%);fill-opacity:1;" d="M 3.671875 3.324219 C 3.652344 3.304688 3.636719 3.28125 3.628906 3.25 C 3.625 3.21875 3.632812 3.1875 3.648438 3.160156 C 3.671875 3.132812 3.707031 3.113281 3.746094 3.117188 C 3.78125 3.117188 3.816406 3.136719 3.835938 3.167969 "/>
<path style=" stroke:none;fill-rule:nonzero;fill:rgb(0%,0%,0%);fill-opacity:1;" d="M 4.339844 2.695312 C 4.371094 2.761719 4.40625 2.824219 4.449219 2.886719 C 4.546875 3.023438 4.671875 3.144531 4.816406 3.234375 "/>
<path style=" stroke:none;fill-rule:nonzero;fill:rgb(0%,0%,0%);fill-opacity:1;" d="M 4.5 3.054688 C 4.535156 3.070312 4.566406 3.09375 4.589844 3.121094 C 4.695312 3.238281 4.648438 3.40625 4.644531 3.425781 "/>
<path style=" stroke:none;fill-rule:nonzero;fill:rgb(0%,0%,0%);fill-opacity:1;" d="M 3.820312 1.070312 C 3.789062 1.160156 3.761719 1.25 3.746094 1.34375 C 3.714844 1.496094 3.730469 1.507812 3.699219 1.621094 C 3.660156 1.761719 3.621094 1.785156 3.625 1.886719 C 3.628906 1.945312 3.640625 2.003906 3.664062 2.0625 C 3.695312 2.164062 3.714844 2.175781 3.722656 2.222656 C 3.734375 2.308594 3.683594 2.355469 3.621094 2.472656 C 3.546875 2.609375 3.484375 2.726562 3.484375 2.867188 C 3.484375 2.921875 3.5 3.007812 3.535156 3.179688 C 3.550781 3.257812 3.546875 3.238281 3.5625 3.3125 C 3.605469 3.523438 3.605469 3.59375 3.644531 3.65625 C 3.652344 3.671875 3.660156 3.691406 3.664062 3.710938 C 3.667969 3.742188 3.664062 3.777344 3.648438 3.804688 C 3.617188 3.886719 3.648438 4.003906 3.691406 4.0625 C 3.75 4.148438 3.867188 4.164062 3.960938 4.179688 C 4.070312 4.195312 4.132812 4.175781 4.34375 4.191406 C 4.394531 4.195312 4.425781 4.199219 4.453125 4.222656 C 4.511719 4.265625 4.515625 4.34375 4.519531 4.457031 C 4.527344 4.660156 4.535156 4.761719 4.535156 4.757812 C 4.535156 4.867188 4.578125 4.984375 4.65625 5.21875 C 4.773438 5.554688 4.808594 5.570312 4.835938 5.742188 C 4.855469 5.863281 4.859375 5.984375 4.84375 6.109375 C 4.824219 6.25 4.789062 6.273438 4.738281 6.457031 C 4.664062 6.730469 4.71875 6.75 4.65625 6.933594 C 4.5625 7.195312 4.441406 7.1875 4.433594 7.351562 C 4.425781 7.539062 4.566406 7.683594 4.722656 7.847656 C 4.816406 7.941406 4.894531 8.019531 4.996094 8.015625 C 5.070312 8.011719 5.109375 7.960938 5.222656 7.855469 C 5.410156 7.679688 5.382812 7.746094 5.609375 7.539062 C 5.707031 7.445312 5.695312 7.453125 5.945312 7.207031 C 6.121094 7.035156 6.207031 6.949219 6.253906 6.921875 C 6.410156 6.828125 6.476562 6.851562 6.664062 6.730469 C 6.738281 6.6875 6.804688 6.632812 6.863281 6.570312 C 6.933594 6.496094 6.996094 6.414062 7.046875 6.328125 C 7.070312 6.28125 7.097656 6.242188 7.132812 6.203125 C 7.183594 6.152344 7.214844 6.144531 7.246094 6.097656 C 7.273438 6.054688 7.285156 6.003906 7.28125 5.953125 C 7.289062 5.757812 7.449219 5.421875 7.683594 5.210938 C 7.75 5.15625 7.789062 5.132812 7.78125 5.105469 C 7.757812 5.03125 7.367188 5.15625 6.90625 5.035156 C 6.738281 4.988281 6.554688 4.9375 6.4375 4.78125 C 6.265625 4.554688 6.324219 4.222656 6.339844 4.121094 C 6.382812 3.871094 6.488281 3.761719 6.417969 3.589844 C 6.382812 3.503906 6.300781 3.394531 6.324219 3.375 C 6.332031 3.371094 6.34375 3.378906 6.367188 3.382812 C 6.4375 3.402344 6.503906 3.355469 6.5625 3.316406 C 6.640625 3.265625 6.707031 3.199219 6.761719 3.125 C 6.851562 3.007812 6.914062 2.871094 6.953125 2.730469 C 7 2.570312 7.027344 2.484375 6.976562 2.410156 C 6.917969 2.332031 6.800781 2.320312 6.792969 2.320312 C 6.71875 2.3125 6.679688 2.34375 6.628906 2.355469 C 6.550781 2.371094 6.433594 2.34375 6.179688 2.089844 C 5.960938 1.867188 5.972656 1.808594 5.757812 1.574219 C 5.6875 1.5 5.582031 1.402344 5.363281 1.207031 C 5.339844 1.183594 5.335938 1.183594 4.972656 0.867188 C 4.746094 0.675781 4.695312 0.632812 4.59375 0.601562 C 4.472656 0.570312 4.34375 0.574219 4.226562 0.617188 C 3.96875 0.707031 3.867188 0.960938 3.820312 1.070312 Z M 3.820312 1.070312 "/>
<path style=" stroke:none;fill-rule:nonzero;fill:rgb(0%,0%,0%);fill-opacity:1;" d="M 4.972656 2.039062 C 4.976562 2.023438 4.988281 2.011719 5 2.007812 C 5.019531 1.996094 5.039062 1.992188 5.058594 1.988281 "/>
<path style=" stroke:none;fill-rule:nonzero;fill:rgb(0%,0%,0%);fill-opacity:1;" d="M 5.003906 2.066406 C 5.011719 2.054688 5.019531 2.042969 5.035156 2.035156 C 5.050781 2.027344 5.070312 2.019531 5.089844 2.015625 "/>
<path style=" stroke:none;fill-rule:nonzero;fill:rgb(0%,0%,0%);fill-opacity:1;" d="M 5.039062 2.097656 C 5.046875 2.085938 5.054688 2.074219 5.070312 2.066406 C 5.085938 2.058594 5.105469 2.050781 5.125 2.050781 "/>
<path style=" stroke:none;fill-rule:nonzero;fill:rgb(0%,0%,0%);fill-opacity:1;" d="M 5.089844 2.125 C 5.09375 2.113281 5.101562 2.105469 5.109375 2.097656 C 5.121094 2.089844 5.136719 2.085938 5.152344 2.082031 "/>
<path style=" stroke:none;fill-rule:nonzero;fill:rgb(0%,0%,0%);fill-opacity:1;" d="M 6.398438 2.746094 C 6.417969 2.78125 6.421875 2.820312 6.414062 2.859375 C 6.402344 2.902344 6.378906 2.941406 6.351562 2.972656 C 6.324219 3.011719 6.304688 3.027344 6.308594 3.050781 C 6.3125 3.070312 6.324219 3.085938 6.34375 3.089844 C 6.375 3.097656 6.390625 3.050781 6.46875 3.007812 C 6.488281 2.996094 6.511719 2.988281 6.535156 2.988281 C 6.566406 2.992188 6.578125 3.011719 6.597656 3.015625 C 6.652344 3.035156 6.75 2.9375 6.804688 2.835938 C 6.816406 2.808594 6.894531 2.664062 6.828125 2.546875 C 6.820312 2.527344 6.796875 2.480469 6.753906 2.476562 C 6.710938 2.472656 6.667969 2.503906 6.640625 2.554688 "/>
<path style=" stroke:none;fill-rule:nonzero;fill:rgb(0%,0%,0%);fill-opacity:1;" d="M 6.589844 2.667969 C 6.640625 2.667969 6.683594 2.695312 6.707031 2.734375 C 6.734375 2.78125 6.730469 2.835938 6.699219 2.875 "/>
<path style=" stroke:none;fill-rule:nonzero;fill:rgb(0%,0%,0%);fill-opacity:1;" d="M 4.261719 4.121094 C 4.402344 4.152344 4.542969 4.15625 4.683594 4.136719 C 4.707031 4.132812 4.71875 4.132812 4.789062 4.117188 C 5.054688 4.066406 5.320312 4 5.589844 3.960938 C 5.625 3.957031 5.65625 3.949219 5.691406 3.9375 C 5.757812 3.910156 5.8125 3.867188 5.929688 3.714844 C 6.046875 3.554688 6.175781 3.378906 6.191406 3.226562 C 6.191406 3.21875 6.195312 3.164062 6.207031 3.164062 C 6.214844 3.164062 6.21875 3.199219 6.238281 3.253906 C 6.246094 3.28125 6.253906 3.308594 6.265625 3.332031 "/>
<path style=" stroke:none;fill-rule:nonzero;fill:rgb(0%,0%,0%);fill-opacity:1;" d="M 5.867188 4.132812 C 5.867188 4.140625 5.859375 4.148438 5.851562 4.148438 C 5.839844 4.148438 5.832031 4.140625 5.832031 4.132812 C 5.832031 4.121094 5.839844 4.113281 5.851562 4.113281 C 5.859375 4.113281 5.867188 4.121094 5.867188 4.132812 Z M 5.867188 4.132812 "/>
<path style=" stroke:none;fill-rule:nonzero;fill:rgb(0%,0%,0%);fill-opacity:1;" d="M 5.164062 4.464844 C 5.164062 4.472656 5.15625 4.480469 5.148438 4.480469 C 5.140625 4.480469 5.132812 4.472656 5.132812 4.464844 C 5.132812 4.457031 5.140625 4.449219 5.148438 4.449219 C 5.15625 4.449219 5.164062 4.457031 5.164062 4.464844 Z M 5.164062 4.464844 "/>
<path style=" stroke:none;fill-rule:nonzero;fill:rgb(0%,0%,0%);fill-opacity:1;" d="M 5.359375 2.804688 C 5.359375 2.8125 5.355469 2.816406 5.347656 2.816406 C 5.339844 2.816406 5.335938 2.8125 5.335938 2.804688 C 5.335938 2.800781 5.339844 2.792969 5.347656 2.792969 C 5.355469 2.792969 5.359375 2.800781 5.359375 2.804688 Z M 5.359375 2.804688 "/>
</g>
</svg>
